<mxfile host="app.diagrams.net" agent="Mozilla/5.0 (X11; Linux x86_64; rv:137.0) Gecko/20100101 Firefox/137.0" version="26.2.14">
  <diagram name="Página-1" id="y5uLng2kR1ERyr-JflfZ">
    <mxGraphModel dx="872" dy="483" grid="1" gridSize="10" guides="1" tooltips="1" connect="1" arrows="1" fold="1" page="1" pageScale="1" pageWidth="827" pageHeight="1169" math="0" shadow="0">
      <root>
        <mxCell id="0" />
        <mxCell id="1" parent="0" />
        <mxCell id="ZhmwVn-B_X7J8iLOEAZt-1" value="User" style="shape=umlActor;verticalLabelPosition=bottom;verticalAlign=top;html=1;outlineConnect=0;" vertex="1" parent="1">
          <mxGeometry x="150" y="260" width="50" height="100" as="geometry" />
        </mxCell>
        <mxCell id="ZhmwVn-B_X7J8iLOEAZt-2" value="" style="rounded=0;whiteSpace=wrap;html=1;movable=1;resizable=1;rotatable=1;deletable=1;editable=1;locked=0;connectable=1;" vertex="1" parent="1">
          <mxGeometry x="240" y="160" width="320" height="240" as="geometry" />
        </mxCell>
        <mxCell id="ZhmwVn-B_X7J8iLOEAZt-3" value="Interfaz" style="text;html=1;align=center;verticalAlign=middle;whiteSpace=wrap;rounded=0;" vertex="1" parent="1">
          <mxGeometry x="300" y="130" width="80" height="30" as="geometry" />
        </mxCell>
        <mxCell id="ZhmwVn-B_X7J8iLOEAZt-4" value="&lt;font style=&quot;font-size: 8px;&quot;&gt;Realizar operaciones basicas&lt;/font&gt;" style="ellipse;whiteSpace=wrap;html=1;" vertex="1" parent="1">
          <mxGeometry x="280" y="258.75" width="80" height="40" as="geometry" />
        </mxCell>
        <mxCell id="ZhmwVn-B_X7J8iLOEAZt-5" value="&lt;font style=&quot;font-size: 8px;&quot;&gt;Poder borrar numero/operador&lt;/font&gt;" style="ellipse;whiteSpace=wrap;html=1;" vertex="1" parent="1">
          <mxGeometry x="447" y="266.25" width="93" height="32.5" as="geometry" />
        </mxCell>
        <mxCell id="ZhmwVn-B_X7J8iLOEAZt-6" value="" style="endArrow=none;html=1;rounded=0;entryX=0;entryY=0.5;entryDx=0;entryDy=0;" edge="1" parent="1" source="ZhmwVn-B_X7J8iLOEAZt-1" target="ZhmwVn-B_X7J8iLOEAZt-4">
          <mxGeometry width="50" height="50" relative="1" as="geometry">
            <mxPoint x="250" y="280" as="sourcePoint" />
            <mxPoint x="300" y="230" as="targetPoint" />
          </mxGeometry>
        </mxCell>
        <mxCell id="ZhmwVn-B_X7J8iLOEAZt-7" value="&lt;font style=&quot;font-size: 8px;&quot;&gt;Copiar resultado&lt;/font&gt;" style="ellipse;whiteSpace=wrap;html=1;" vertex="1" parent="1">
          <mxGeometry x="460" y="225.63" width="68" height="30" as="geometry" />
        </mxCell>
        <mxCell id="ZhmwVn-B_X7J8iLOEAZt-8" value="Extend" style="endArrow=open;endSize=12;dashed=1;html=1;rounded=0;exitX=1;exitY=0;exitDx=0;exitDy=0;entryX=0;entryY=0.5;entryDx=0;entryDy=0;" edge="1" parent="1" source="ZhmwVn-B_X7J8iLOEAZt-4" target="ZhmwVn-B_X7J8iLOEAZt-7">
          <mxGeometry width="160" relative="1" as="geometry">
            <mxPoint x="368" y="318.75" as="sourcePoint" />
            <mxPoint x="528" y="318.75" as="targetPoint" />
          </mxGeometry>
        </mxCell>
        <mxCell id="ZhmwVn-B_X7J8iLOEAZt-9" value="Extend" style="endArrow=open;endSize=12;dashed=1;html=1;rounded=0;exitX=1;exitY=0.5;exitDx=0;exitDy=0;entryX=0;entryY=0.5;entryDx=0;entryDy=0;" edge="1" parent="1" source="ZhmwVn-B_X7J8iLOEAZt-4" target="ZhmwVn-B_X7J8iLOEAZt-5">
          <mxGeometry width="160" relative="1" as="geometry">
            <mxPoint x="367" y="309.75" as="sourcePoint" />
            <mxPoint x="470" y="293.75" as="targetPoint" />
          </mxGeometry>
        </mxCell>
        <mxCell id="ZhmwVn-B_X7J8iLOEAZt-10" value="&lt;font style=&quot;font-size: 10px;&quot;&gt;Eliminar operacion&lt;/font&gt;" style="ellipse;whiteSpace=wrap;html=1;" vertex="1" parent="1">
          <mxGeometry x="435" y="321.87" width="93" height="32.5" as="geometry" />
        </mxCell>
        <mxCell id="ZhmwVn-B_X7J8iLOEAZt-11" value="Extend" style="endArrow=open;endSize=12;dashed=1;html=1;rounded=0;exitX=1;exitY=1;exitDx=0;exitDy=0;entryX=0;entryY=0.5;entryDx=0;entryDy=0;" edge="1" parent="1" source="ZhmwVn-B_X7J8iLOEAZt-4" target="ZhmwVn-B_X7J8iLOEAZt-10">
          <mxGeometry width="160" relative="1" as="geometry">
            <mxPoint x="370" y="288.87" as="sourcePoint" />
            <mxPoint x="457" y="292.87" as="targetPoint" />
          </mxGeometry>
        </mxCell>
        <mxCell id="ZhmwVn-B_X7J8iLOEAZt-12" value="Mensaje de error" style="ellipse;whiteSpace=wrap;html=1;" vertex="1" parent="1">
          <mxGeometry x="380" y="361.87" width="93" height="32.5" as="geometry" />
        </mxCell>
        <mxCell id="ZhmwVn-B_X7J8iLOEAZt-13" value="Extend" style="endArrow=open;endSize=12;dashed=1;html=1;rounded=0;exitX=0.634;exitY=0.98;exitDx=0;exitDy=0;entryX=0;entryY=0.5;entryDx=0;entryDy=0;exitPerimeter=0;" edge="1" parent="1" source="ZhmwVn-B_X7J8iLOEAZt-4" target="ZhmwVn-B_X7J8iLOEAZt-12">
          <mxGeometry width="160" relative="1" as="geometry">
            <mxPoint x="359" y="302.87" as="sourcePoint" />
            <mxPoint x="445" y="347.87" as="targetPoint" />
          </mxGeometry>
        </mxCell>
        <mxCell id="ZhmwVn-B_X7J8iLOEAZt-14" value="&lt;div&gt;&lt;font style=&quot;font-size: 8px;&quot;&gt;Restricción: [solo numeros&amp;nbsp;&lt;/font&gt;&lt;/div&gt;&lt;div&gt;&lt;font style=&quot;font-size: 8px;&quot;&gt;1 y 0]&lt;/font&gt;&lt;/div&gt;&lt;div&gt;&lt;font style=&quot;font-size: 8px;&quot;&gt;Restricción: [maximo numero de 30 de longitud]&lt;/font&gt;&lt;/div&gt;" style="shape=note;size=20;whiteSpace=wrap;html=1;" vertex="1" parent="1">
          <mxGeometry x="240" y="160" width="140" height="61.25" as="geometry" />
        </mxCell>
        <mxCell id="ZhmwVn-B_X7J8iLOEAZt-15" value="" style="endArrow=block;dashed=1;endFill=0;endSize=12;html=1;rounded=0;entryX=0.5;entryY=0;entryDx=0;entryDy=0;" edge="1" parent="1" target="ZhmwVn-B_X7J8iLOEAZt-4">
          <mxGeometry width="160" relative="1" as="geometry">
            <mxPoint x="300" y="220" as="sourcePoint" />
            <mxPoint x="440" y="240" as="targetPoint" />
          </mxGeometry>
        </mxCell>
      </root>
    </mxGraphModel>
  </diagram>
</mxfile>
